<svg viewBox="0 0 120 140" xmlns="http://www.w3.org/2000/svg">
  <!-- Sparkles (welcome sparkle) -->
  <circle cx="18" cy="38" r="2.5" fill="#F5A623"/>
  <circle cx="10" cy="58" r="2" fill="#F5A623"/>
  <circle cx="22" cy="78" r="2.5" fill="#F5A623"/>
  <circle cx="12" cy="90" r="2" fill="#F5A623"/>

  <!-- Wave bubble -->
  <circle cx="96" cy="28" r="16" fill="#FFFFFF" stroke="#003A75" stroke-width="3"/>
  <path d="M 86 36 L 82 40 L 88 38 Z" fill="#FFFFFF" stroke="#003A75" stroke-width="3" stroke-linejoin="round"/>
  <text x="96" y="35" text-anchor="middle" font-size="18" font-weight="800" fill="#003A75">👋</text>

  <!-- Duck body (centered, pushed down) -->
  <g transform="translate(20 40)">
    <ellipse cx="40" cy="64" rx="26" ry="14" fill="#F5A623" stroke="#003A75" stroke-width="3.5"/>
    <path d="M 30 76 L 24 82 L 36 82 Z" fill="#E67E22" stroke="#003A75" stroke-width="2.2" stroke-linejoin="round"/>
    <path d="M 50 76 L 44 82 L 56 82 Z" fill="#E67E22" stroke="#003A75" stroke-width="2.2" stroke-linejoin="round"/>
    <circle cx="40" cy="36" r="22" fill="#F5A623" stroke="#003A75" stroke-width="3.5"/>
    <circle cx="33" cy="32" r="4.2" fill="#FFFFFF" stroke="#003A75" stroke-width="2.2"/>
    <circle cx="47" cy="32" r="4.2" fill="#FFFFFF" stroke="#003A75" stroke-width="2.2"/>
    <circle cx="34" cy="33" r="1.8" fill="#003A75"/>
    <circle cx="48" cy="33" r="1.8" fill="#003A75"/>
    <path d="M 33 42 Q 40 38 47 42 L 45 50 Q 40 52 35 50 Z"
          fill="#E67E22" stroke="#003A75" stroke-width="2.2" stroke-linejoin="round"/>
    <ellipse cx="25" cy="42" rx="2.6" ry="1.6" fill="#E74C3C" opacity="0.5"/>
    <ellipse cx="55" cy="42" rx="2.6" ry="1.6" fill="#E74C3C" opacity="0.5"/>
  </g>
</svg>
